<svg xmlns="http://www.w3.org/2000/svg" fill="none" viewBox="0 0 22 16"><path fill="#fff" d="M21.972 7.883v-.088c0-.03 0-.058-.028-.088 0-.03-.028-.059-.028-.088 0-.03-.028-.059-.028-.089s-.028-.058-.028-.058c-.027-.03-.027-.058-.054-.088v-.03l-.056-.06L14.007.207a.824.824 0 00-.852-.147.877.877 0 00-.466.763v3.693L.796 4.513c-.44 0-.796.382-.796.85v5.244c0 .47.357.85.796.85h11.947v3.692c0 .323.192.616.467.763.11.058.22.088.33.088a.74.74 0 00.52-.205l7.691-7.15c.028 0 .028-.029.055-.058l.028-.03v-.03c.028-.029.028-.058.054-.087 0-.03.028-.03.028-.059 0-.03.028-.058.028-.088 0-.03.028-.058.028-.088 0-.03 0-.058.028-.088V7.94c-.028 0-.028-.028-.028-.058z"/></svg>