<svg xmlns="http://www.w3.org/2000/svg" fill="none" viewBox="0 0 180 201"><rect width="177" height="197" x="1.5" y="1.834" fill="#fff" rx="6.5"/><path fill="#fff" d="M49 47.208h83.915v102.368H49z"/><mask id="a" style="mask-type:luminance" width="110" height="111" x="49" y="39" maskUnits="userSpaceOnUse"><path fill="#fff" fill-rule="evenodd" d="M49.001 39.334H159v110.103H49.001V39.334z" clip-rule="evenodd"/></mask><g mask="url(#a)"><path fill="#000" fill-rule="evenodd" d="M52.61 145.779v-95.32h13.513v10.864h49.769V50.46h13.513v19.757L96.287 103.79v9.928l-5.28 5.346-10.567-10.713-2.555 2.586 10.572 10.718-10.572 10.713 2.555 2.585 10.568-10.713 10.568 10.713 2.555-2.585-10.573-10.713 5.28-5.352h9.792l20.775-21.06v50.536H52.61zm17.123-88.115h42.55V50.46h-42.55v7.205zM91.007 42.99c2.425 0 4.442 1.61 5.197 3.81h-10.4c.76-2.2 2.772-3.81 5.203-3.81zm55.649 14.908l7.238 7.342-20.881 21.168-3.609 3.659-22.266 22.577h-7.243v-7.342l29.509-29.914 3.609-3.66 13.643-13.83zm-13.643 33.686l25.987-26.344-12.344-12.513-13.643 13.83V46.8H99.997c-.842-4.254-4.552-7.469-8.99-7.469-4.441 0-8.151 3.215-8.994 7.469H49.001v102.637h84.013V91.584z" clip-rule="evenodd"/></g><mask id="b" style="mask-type:luminance" width="110" height="123" x="49" y="39" maskUnits="userSpaceOnUse"><path fill="#fff" fill-rule="evenodd" d="M49 161.334h110v-122H49v122z" clip-rule="evenodd"/></mask><g fill="#000" fill-rule="evenodd" clip-rule="evenodd" mask="url(#b)"><path d="M49 161.334h84.013v-3.659H49v3.659zM106.154 73.371l-2.551-2.585-19.307 19.572-5.885-5.961-2.55 2.59 8.435 8.542 21.858-22.158z"/></g><path fill="#000" d="M145.951 55.799l10.04 9.38-48.062 49.503-10.04-9.38z"/><rect width="177" height="197" x="1.5" y="1.834" stroke="#000" stroke-width="3" rx="6.5"/></svg>