<?xml version="1.0" standalone="no"?>
<!DOCTYPE svg PUBLIC "-//W3C//DTD SVG 20010904//EN"
 "http://www.w3.org/TR/2001/REC-SVG-20010904/DTD/svg10.dtd">
<svg version="1.0" xmlns="http://www.w3.org/2000/svg"
 width="512.000000pt" height="512.000000pt" viewBox="0 0 512.000000 512.000000"
 preserveAspectRatio="xMidYMid meet">
<metadata>
Created by potrace 1.14, written by Peter Selinger 2001-2017
</metadata>
<g transform="translate(0.000000,512.000000) scale(0.100000,-0.100000)"
fill="#000000" stroke="none">
<path d="M2325 5109 c-679 -65 -1307 -399 -1742 -926 -394 -478 -603 -1094
-579 -1708 31 -836 450 -1585 1148 -2052 427 -285 974 -439 1493 -419 836 31
1585 450 2052 1148 285 427 439 974 419 1493 -31 836 -450 1585 -1148 2052
-467 312 -1078 465 -1643 412z m475 -743 c122 -34 313 -128 416 -205 265 -197
465 -525 530 -868 9 -48 18 -94 20 -100 2 -9 28 -13 84 -13 l80 0 0 -200 0
-200 -80 0 c-75 0 -80 -1 -84 -22 -24 -126 -62 -267 -92 -342 -182 -461 -556
-779 -998 -847 -105 -17 -343 -6 -436 19 -376 101 -665 343 -849 710 -55 109
-106 263 -128 384 l-18 98 -82 0 -83 0 0 200 0 200 83 0 82 0 17 93 c103 558
505 997 1013 1107 135 30 392 23 525 -14z m-659 -2991 l401 -256 31 19 c18 10
200 126 405 256 206 131 375 236 377 234 1 -2 32 -146 67 -321 36 -175 68
-320 70 -323 3 -2 157 -57 342 -121 185 -64 336 -120 336 -124 0 -4 -37 -38
-82 -74 -358 -288 -805 -474 -1263 -525 -118 -13 -410 -13 -533 1 -445 48
-913 243 -1261 526 -47 37 -86 73 -88 78 -2 6 145 61 326 124 l330 114 15 66
c8 36 38 182 67 324 29 141 54 257 55 257 2 0 184 -115 405 -255z"/>
<path d="M2060 3334 c-120 -76 -70 -258 71 -258 28 0 57 7 73 18 86 56 87 185
3 236 -39 24 -112 26 -147 4z"/>
<path d="M2824 3340 c-31 -12 -72 -66 -79 -103 -8 -43 19 -112 54 -136 90 -63
208 -10 219 97 5 60 -15 105 -61 132 -33 21 -96 25 -133 10z"/>
<path d="M2452 648 l3 -93 90 0 90 0 3 93 3 92 -96 0 -96 0 3 -92z"/>
</g>
</svg>
