<?xml version="1.0" standalone="no"?>
<!DOCTYPE svg PUBLIC "-//W3C//DTD SVG 20010904//EN"
 "http://www.w3.org/TR/2001/REC-SVG-20010904/DTD/svg10.dtd">
<svg version="1.0" xmlns="http://www.w3.org/2000/svg"
 width="512.000000pt" height="512.000000pt" viewBox="0 0 512.000000 512.000000"
 preserveAspectRatio="xMidYMid meet">
<metadata>
Created by potrace 1.14, written by Peter Selinger 2001-2017
</metadata>
<g transform="translate(0.000000,512.000000) scale(0.100000,-0.100000)"
fill="#000000" stroke="none">
<path d="M1456 4373 c-88 -304 -163 -556 -167 -559 -6 -4 -1105 -264 -1115
-264 -13 0 21 -65 271 -516 151 -274 275 -501 275 -506 0 -4 -135 -227 -301
-494 -165 -268 -297 -490 -292 -494 4 -4 253 -78 553 -164 299 -86 547 -161
550 -166 3 -5 64 -259 135 -564 72 -306 132 -556 135 -556 3 0 230 124 505
276 274 151 502 276 506 277 3 1 228 -135 498 -302 271 -167 493 -302 495
-300 2 2 75 253 162 558 l160 555 564 133 c311 73 566 133 567 133 0 0 -125
228 -279 506 -153 279 -277 513 -274 521 3 8 136 225 296 482 159 258 292 475
296 484 4 11 -3 18 -28 25 -344 97 -1065 307 -1072 313 -5 4 -68 259 -140 566
-72 307 -135 557 -139 557 -6 -2 -785 -429 -977 -537 l-35 -19 -476 295 c-263
162 -485 300 -495 305 -18 9 -31 -31 -178 -545z m1228 -873 c257 -65 465 -297
518 -574 l13 -66 42 0 43 0 0 -105 0 -105 -43 0 -44 0 -12 -67 c-25 -139 -119
-312 -220 -406 -205 -191 -477 -236 -716 -118 -212 105 -344 292 -400 564 -5
25 -9 27 -50 27 l-45 0 0 105 0 105 43 0 44 0 21 88 c98 399 453 642 806 552z
m-344 -1605 c116 -74 214 -135 218 -135 4 0 102 61 217 135 116 73 213 131
216 127 3 -4 21 -79 39 -167 17 -88 35 -163 39 -167 3 -4 191 -71 416 -149
226 -77 416 -144 423 -148 8 -5 -36 -19 -105 -35 -65 -15 -124 -30 -132 -34
-8 -5 -39 -94 -70 -200 l-55 -192 -33 0 -33 0 0 -55 c0 -43 3 -55 16 -55 12 0
14 -7 9 -33 -13 -58 -24 -65 -25 -14 l0 47 -45 0 -45 0 0 -55 0 -55 45 0 c25
0 45 -3 45 -7 0 -5 -17 -64 -38 -133 l-38 -125 -90 -3 -90 -3 -349 217 c-193
119 -353 217 -356 219 -3 2 -181 -93 -395 -212 -366 -203 -393 -216 -450 -220
l-61 -5 -11 43 c-6 24 -54 228 -107 454 -53 226 -98 417 -101 426 -3 10 -25
22 -52 29 -40 11 -78 30 -60 30 8 0 762 261 767 265 3 4 70 323 71 338 0 4 2
7 4 7 3 0 100 -61 216 -135z m1040 -1535 c0 -13 -11 -13 -30 0 -12 8 -11 10 8
10 12 0 22 -4 22 -10z"/>
<path d="M2305 2948 c-49 -26 -58 -69 -24 -112 15 -19 30 -26 55 -26 69 0 99
76 49 125 -26 27 -49 31 -80 13z"/>
<path d="M2688 2930 c-24 -25 -29 -36 -23 -58 10 -43 34 -62 75 -62 46 0 70
25 70 73 0 27 -7 41 -26 56 -36 29 -60 26 -96 -9z"/>
<path d="M2510 1505 l0 -45 50 0 50 0 0 45 0 45 -50 0 -50 0 0 -45z"/>
<path d="M2510 1111 l0 -51 51 0 50 0 -3 48 -3 47 -47 3 -48 3 0 -50z"/>
<path d="M3020 820 l0 -110 115 0 115 0 0 55 0 55 65 0 65 0 0 55 0 55 -65 0
-65 0 0 -55 0 -55 -50 0 -50 0 0 55 0 55 -65 0 -65 0 0 -110z"/>
<path d="M1712 867 c-12 -13 -22 -36 -22 -51 0 -34 41 -76 75 -76 36 0 75 42
75 80 0 65 -83 95 -128 47z"/>
</g>
</svg>
