<svg xmlns="http://www.w3.org/2000/svg" fill="none" viewBox="0 0 149 320"><path fill="#FFA9D1" d="M126.587 297.783c29.057-29.275 29.057-76.731.34-106.006l-84.509-85.144c-17.366-17.496-17.366-46.443.34-63.94 8.35-8.412 19.7-13.118 31.73-13.118 12.03 0 23.381 4.706 31.732 13.46 17.366 17.497 17.366 46.444-.34 63.94L83.504 129.52l20.706 20.861 22.716-22.886c28.73-28.946 29.056-76.388.339-105.662-29.07-28.946-76.495-29.275-105.554 0C7.685 35.965 0 54.473 0 74.664c0 20.191 7.685 39.044 21.71 53.174l84.509 85.144c17.366 17.497 17.366 46.444-.339 63.94-17.705 17.496-46.097 17.497-63.462-.342-17.366-17.496-17.366-46.443.339-63.939l22.376-22.545-20.706-20.862-22.376 22.545C8.025 205.91 0 225.089 0 244.953c0 19.85 7.685 38.7 21.71 52.831C35.737 311.915 54.447 319.658 74.148 320c19.701-.342 38.414-8.086 52.439-22.217z"/></svg>