<svg xmlns="http://www.w3.org/2000/svg" fill="none" viewBox="0 0 1099 2366"><path fill="#FFA9D1" d="M935.955 2201.73c214.835-216.45 214.835-567.33 2.508-783.78L313.63 788.42c-128.399-129.365-128.399-343.393 2.508-472.754 61.74-62.204 145.667-96.999 234.612-96.999s172.872 34.795 234.612 99.527c128.4 129.366 128.4 343.394-2.508 472.754L617.411 957.636l153.095 154.244 167.952-169.213c212.422-214.023 214.832-564.791 2.509-781.238-214.932-214.023-565.588-216.451-780.443 0C56.821 265.913 0 402.762 0 552.048c0 149.286 56.82 288.678 160.524 393.157l624.833 629.535c128.4 129.36 128.399 343.39-2.508 472.75-130.908 129.36-340.829 129.37-469.224-2.52-128.399-129.37-128.399-343.4 2.508-472.76l165.444-166.69-153.096-154.24-165.443 166.68C59.334 1522.45.005 1664.25.005 1811.12c0 146.76 56.82 286.14 160.524 390.62 103.703 104.48 242.04 161.73 387.702 164.26 145.667-2.53 284.026-59.78 387.724-164.27z"/></svg>