<svg xmlns="http://www.w3.org/2000/svg" fill="none" viewBox="0 0 113 113"><rect width="112" height="112" x=".25" y=".334" fill="#000" rx="10"/><rect width="56.749" height="60.247" x="27.698" y="26.48" fill="#fff" rx="8"/><path fill="#000" d="M61.962 62.99v-1.719c2.221-.084 2.976-.559 2.976-2.977v-8.835h4.261v1.37l-.726.084c-.81.084-1.174.35-1.174 1.398v6.039c0 4.976-5.337 4.64-5.337 4.64zM44.342 58.364V52.31c0-1.049-.35-1.314-1.174-1.398l-.727-.084v-1.37h4.262v8.849c0 2.418.754 2.894 2.976 2.977v1.72c0-.014-5.337.321-5.337-4.641z"/><path fill="#000" d="M48.59 67.744V66.36l.726-.112c.81-.112 1.174-.406 1.174-1.398v-.21c0-1.58.727-2.418 2.361-2.837 0 0-2.36-.56-2.36-3.44v-6.052c0-1.049-.35-1.314-1.175-1.398l-.726-.084v-1.37h4.261v8.849c0 2.418.755 2.894 2.976 2.977v1.72c-2.235 0-2.976.615-2.976 1.635v3.104H48.59z"/><path fill="#000" d="M58.803 67.744V64.64c0-1.02-.74-1.635-2.976-1.635v-1.72c2.222-.083 2.976-.559 2.976-2.977v-8.849h4.262v1.37l-.727.084c-.81.084-1.174.35-1.174 1.398v6.039c0 2.893-2.36 3.439-2.36 3.439 1.634.405 2.36 1.258 2.36 2.837v.21c0 .993.35 1.286 1.174 1.398l.727.112v1.37h-4.262v.028zM75.88 44.943H36.327v2.14H75.88v-2.14zM75.88 40.358H36.327v2.14H75.88v-2.14zM70.373 69.924H42.441v2.292h27.932v-2.292z"/><rect width="56.749" height="60.247" x="27.698" y="26.48" stroke="#000" rx="8"/></svg>